<svg width="67" height="39" viewBox="0 0 67 39" fill="none" xmlns="http://www.w3.org/2000/svg">
<path d="M19.1003 14.1641C19.1003 14.9666 19.1876 15.6174 19.3405 16.0945C19.5152 16.5717 19.7335 17.0923 20.0392 17.6563C20.1484 17.8298 20.1921 18.0033 20.1921 18.1552C20.1921 18.3721 20.0611 18.589 19.7772 18.8059L18.4015 19.7169C18.205 19.8471 18.0085 19.9121 17.8338 19.9121C17.6154 19.9121 17.397 19.8037 17.1787 19.6085C16.873 19.2831 16.6109 18.936 16.3926 18.589C16.1742 18.2202 15.9558 17.8081 15.7156 17.3092C14.0124 19.3048 11.8724 20.3026 9.2957 20.3026C7.46143 20.3026 5.99839 19.782 4.9284 18.7408C3.85841 17.6997 3.3125 16.3115 3.3125 14.5762C3.3125 12.7325 3.96759 11.2358 5.29962 10.1079C6.63165 8.97998 8.4004 8.41602 10.6496 8.41602C11.392 8.41602 12.1563 8.48109 12.9642 8.58954C13.7722 8.698 14.602 8.87152 15.4754 9.06674V7.48331C15.4754 5.83482 15.126 4.68521 14.4491 4.01279C13.7503 3.34038 12.5712 3.01502 10.8898 3.01502C10.1255 3.01502 9.33937 3.10178 8.53142 3.297C7.72347 3.49221 6.93736 3.73081 6.17308 4.03448C5.8237 4.18632 5.56166 4.27308 5.4088 4.31646C5.25595 4.35984 5.14676 4.38153 5.05942 4.38153C4.75371 4.38153 4.60085 4.16463 4.60085 3.70912V2.64627C4.60085 2.29922 4.64453 2.03893 4.75371 1.8871C4.86289 1.73526 5.05942 1.58343 5.36513 1.43159C6.12941 1.04116 7.04654 0.715795 8.11653 0.455506C9.18651 0.173526 10.322 0.0433815 11.523 0.0433815C14.1216 0.0433815 16.0213 0.629032 17.2442 1.80033C18.4452 2.97163 19.0566 4.75028 19.0566 7.13626V14.1641H19.1003ZM10.2347 17.4611C10.9553 17.4611 11.6977 17.3309 12.4838 17.0706C13.2699 16.8103 13.9687 16.3331 14.5583 15.6824C14.9077 15.2703 15.1697 14.8148 15.3007 14.2942C15.4317 13.7736 15.5191 13.1446 15.5191 12.4071V11.4961C14.8858 11.3443 14.2089 11.2141 13.5101 11.1274C12.8114 11.0406 12.1344 10.9972 11.4575 10.9972C9.99446 10.9972 8.92448 11.2792 8.20387 11.8648C7.48327 12.4505 7.13388 13.2747 7.13388 14.3593C7.13388 15.3788 7.39592 16.1379 7.94183 16.6585C8.46591 17.2008 9.23019 17.4611 10.2347 17.4611ZM27.7694 19.8037C27.3763 19.8037 27.1143 19.7386 26.9396 19.5868C26.7649 19.4566 26.612 19.1529 26.481 18.7408L21.3494 1.97386C21.2184 1.54004 21.1529 1.25806 21.1529 1.10623C21.1529 0.759177 21.3276 0.56396 21.677 0.56396H23.817C24.2319 0.56396 24.5157 0.629032 24.6686 0.780868C24.8433 0.911012 24.9743 1.21468 25.1053 1.62681L28.7738 15.9861L32.1803 1.62681C32.2895 1.19299 32.4205 0.911012 32.5952 0.780868C32.7699 0.650723 33.0756 0.56396 33.4687 0.56396H35.2156C35.6305 0.56396 35.9144 0.629032 36.0891 0.780868C36.2638 0.911012 36.4166 1.21468 36.504 1.62681L39.9541 16.1596L43.7318 1.62681C43.8629 1.19299 44.0157 0.911012 44.1686 0.780868C44.3433 0.650723 44.6271 0.56396 45.0202 0.56396H47.051C47.4004 0.56396 47.5969 0.737486 47.5969 1.10623C47.5969 1.21468 47.5751 1.32314 47.5532 1.45328C47.5314 1.58343 47.4877 1.75695 47.4004 1.99555L42.1378 18.7625C42.0067 19.1963 41.8539 19.4783 41.6792 19.6085C41.5045 19.7386 41.2206 19.8254 40.8494 19.8254H38.9715C38.5566 19.8254 38.2727 19.7603 38.098 19.6085C37.9233 19.4566 37.7705 19.1746 37.6831 18.7408L34.2985 4.75028L30.9357 18.7191C30.8265 19.1529 30.6955 19.4349 30.5208 19.5868C30.3461 19.7386 30.0404 19.8037 29.6473 19.8037H27.7694ZM55.8292 20.3893C54.6937 20.3893 53.5583 20.2592 52.4664 19.9989C51.3746 19.7386 50.523 19.4566 49.9552 19.1313C49.6058 18.936 49.3656 18.7191 49.2783 18.5239C49.191 18.3287 49.1473 18.1118 49.1473 17.9166V16.8103C49.1473 16.3548 49.322 16.1379 49.6495 16.1379C49.7805 16.1379 49.9116 16.1596 50.0426 16.203C50.1736 16.2464 50.3701 16.3331 50.5885 16.4199C51.3309 16.7453 52.1389 17.0056 52.9905 17.1791C53.864 17.3526 54.7156 17.4394 55.589 17.4394C56.9647 17.4394 58.0347 17.2008 58.7772 16.7236C59.5196 16.2464 59.9127 15.5523 59.9127 14.663C59.9127 14.0556 59.7161 13.5567 59.3231 13.1446C58.93 12.7325 58.1876 12.3637 57.1176 12.0167L53.9513 11.0406C52.3572 10.5417 51.1781 9.80423 50.4575 8.82814C49.7369 7.87375 49.3656 6.8109 49.3656 5.68298C49.3656 4.77197 49.5622 3.96941 49.9552 3.27531C50.3483 2.5812 50.8724 1.97386 51.5275 1.49666C52.1826 0.997775 52.925 0.629032 53.7985 0.368743C54.6719 0.108454 55.589 0 56.5498 0C57.0303 0 57.5325 0.0216908 58.0129 0.0867631C58.5151 0.151835 58.9737 0.238598 59.4323 0.325361C59.869 0.433815 60.2839 0.542269 60.6769 0.672414C61.07 0.802558 61.3757 0.932703 61.5941 1.06285C61.8998 1.23637 62.1182 1.4099 62.2492 1.60512C62.3802 1.77864 62.4457 2.01724 62.4457 2.32091V3.34038C62.4457 3.79588 62.271 4.03448 61.9435 4.03448C61.7688 4.03448 61.4849 3.94772 61.1137 3.77419C59.869 3.21023 58.4715 2.92825 56.9211 2.92825C55.6764 2.92825 54.6937 3.12347 54.0168 3.53559C53.3399 3.94772 52.9905 4.57675 52.9905 5.46607C52.9905 6.07341 53.2089 6.59399 53.6456 7.00612C54.0823 7.41824 54.8903 7.83037 56.0476 8.19911L59.1484 9.17519C60.7206 9.67408 61.8561 10.3682 62.533 11.2575C63.21 12.1468 63.5375 13.1663 63.5375 14.2942C63.5375 15.2269 63.341 16.0729 62.9698 16.8103C62.5767 17.5478 62.0526 18.1986 61.3757 18.7191C60.6988 19.2614 59.8908 19.6518 58.9519 19.9338C57.9692 20.2375 56.9429 20.3893 55.8292 20.3893Z" fill="#333333"/>
<path fill-rule="evenodd" clip-rule="evenodd" d="M59.9545 30.9311C52.7703 36.202 42.3325 39.0001 33.3577 39.0001C20.7799 39.0001 9.44672 34.3799 0.886813 26.7014C0.209882 26.0941 0.821304 25.2698 1.62925 25.747C10.8879 31.0829 22.3084 34.3149 34.1219 34.3149C42.0923 34.3149 50.8487 32.6664 58.9064 29.2826C60.1074 28.7403 61.1337 30.0635 59.9545 30.9311Z" fill="#333333"/>
<path fill-rule="evenodd" clip-rule="evenodd" d="M62.9455 27.5473C62.0283 26.376 56.8749 26.9834 54.5384 27.2653C53.8396 27.3521 53.7305 26.7448 54.3637 26.2893C58.469 23.4261 65.2165 24.2503 66.0026 25.2047C66.7887 26.1808 65.7842 32.8833 61.941 36.0935C61.3514 36.5924 60.7836 36.3321 61.0457 35.6814C61.9191 33.534 63.8626 28.6969 62.9455 27.5473Z" fill="#333333"/>
</svg>
