<svg width="136" height="28" viewBox="0 0 136 28" fill="none" xmlns="http://www.w3.org/2000/svg">
<g clip-path="url(#clip0_113_43)">
<path d="M20.5127 17.3872C20.5116 18.5422 20.2171 19.6794 19.6549 20.7004C19.0926 21.7213 18.2795 22.5952 17.2861 23.2462C16.2927 23.8973 15.1489 24.3058 13.9539 24.4364C12.7589 24.567 11.5487 24.4158 10.4283 23.9958C9.30797 23.5758 8.31117 22.8998 7.52435 22.0263C6.73754 21.1528 6.18447 20.1082 5.91307 18.983C5.64168 17.8579 5.66016 16.6861 5.96691 15.5694C6.27367 14.4527 6.85943 13.4246 7.67343 12.5744L2.62874 17.3872L0.00981903 14.8723L5.66341 9.49366C6.03696 9.13421 6.33191 8.70669 6.53093 8.23622C6.72966 7.7672 6.8298 7.26507 6.82556 6.75873V0H10.5313V6.74301C10.5483 7.71937 10.3566 8.68871 9.96813 9.59112C9.57962 10.4935 9.00252 11.3099 8.27251 11.9897L8.10555 12.15C9.16675 11.2239 10.4847 10.613 11.9 10.3912C13.3152 10.1694 14.7671 10.3463 16.0798 10.9004C17.3926 11.4546 18.5099 12.3622 19.2967 13.5134C20.0834 14.6647 20.5058 16.0102 20.5127 17.3872ZM17.1539 17.3872C17.154 16.5609 16.8778 15.7565 16.3659 15.0923C15.854 14.4281 15.1336 13.9394 14.3106 13.698C13.4877 13.4566 12.6058 13.4753 11.7948 13.7515C10.9838 14.0276 10.2866 14.5465 9.80586 15.2318C9.32509 15.917 9.08619 16.7324 9.12434 17.5579C9.16248 18.3834 9.47566 19.1752 10.0177 19.8169C10.5598 20.4586 11.3022 20.9162 12.1355 21.1222C12.9687 21.3283 13.8489 21.2719 14.6463 20.9615C15.1361 20.7688 15.5812 20.4845 15.9558 20.1253C16.3327 19.767 16.632 19.3405 16.8365 18.8706C17.041 18.4007 17.1467 17.8965 17.1474 17.3872H17.1539ZM32.6808 10.4619C34.2391 10.4619 35.446 10.7762 36.3015 11.405C36.7235 11.7051 37.0619 12.1005 37.2869 12.5561C37.5119 13.0117 37.6164 13.5136 37.5913 14.0173C37.6234 14.7447 37.3817 15.4589 36.9104 16.0292C36.4005 16.5875 35.7077 16.9623 34.9462 17.0917C37.0675 17.4438 38.1293 18.5158 38.1315 20.3076C38.1532 20.8432 38.0398 21.3758 37.801 21.8602C37.5622 22.3446 37.205 22.7664 36.7598 23.0897C35.8454 23.7687 34.5436 24.1072 32.8543 24.1051H27.4692V10.4619H32.6808ZM29.8 16.2461H32.7463C33.409 16.2815 34.0639 16.0948 34.5992 15.718C34.8158 15.54 34.9881 15.3176 35.1033 15.0673C35.2157 14.8155 35.2661 14.5423 35.2507 14.2688C35.2651 13.9974 35.2134 13.7266 35.0997 13.4777C34.9861 13.2289 34.8136 13.0089 34.5959 12.8353C34.0592 12.4652 33.4059 12.2842 32.7463 12.3229H29.8V16.2461ZM29.8 22.2189H32.8838C33.6323 22.2637 34.3759 22.0763 35.0051 21.6845C35.2459 21.5122 35.4394 21.2863 35.5689 21.0261C35.6983 20.7659 35.7599 20.4794 35.7483 20.1913C35.7619 19.8958 35.7013 19.6014 35.5715 19.3331C35.4402 19.0649 35.2423 18.8317 34.9953 18.6541C34.3717 18.2574 33.6305 18.0665 32.8838 18.1103H29.8V22.2189ZM39.2281 16.4284C39.6318 15.6793 40.2511 15.0574 41.0123 14.6366C41.8114 14.207 42.7155 13.9899 43.6312 14.0079C44.5505 13.9886 45.4604 14.1885 46.2796 14.5894C47.0299 14.9694 47.6547 15.5432 48.0834 16.2461C48.5358 17.0126 48.7706 17.8799 48.7643 18.761C48.7643 19.0219 48.7446 19.2824 48.7054 19.5406H40.8781V19.6569C40.8885 20.4223 41.1914 21.1573 41.7292 21.7222C41.9926 21.9812 42.3092 22.1846 42.6589 22.3195C43.0083 22.454 43.3826 22.5182 43.7589 22.5081C44.3615 22.527 44.9557 22.3679 45.4612 22.0523C45.9262 21.7437 46.2525 21.2777 46.3745 20.7477H48.5679C48.3972 21.7325 47.8511 22.6211 47.0358 23.2406C46.1488 23.9075 45.0452 24.2526 43.9193 24.2151C42.933 24.2395 41.9565 24.0232 41.081 23.5864C40.2909 23.1802 39.6422 22.5605 39.215 21.804C38.7619 20.983 38.5364 20.0639 38.5603 19.1351C38.5509 18.1954 38.7825 17.268 39.2347 16.4347L39.2281 16.4284ZM46.5284 18.0191C46.4725 17.3589 46.1493 16.746 45.6281 16.3121C45.0838 15.8992 44.4028 15.6883 43.7098 15.718C43.033 15.7036 42.374 15.9272 41.8569 16.3467C41.5976 16.5571 41.3841 16.8144 41.2285 17.1041C41.0729 17.3937 40.9783 17.71 40.9501 18.0348L46.5284 18.0191ZM59.3873 22.2629V24.0957H58.2284C57.7054 24.1414 57.1838 23.9954 56.7684 23.687C56.6156 23.5313 56.4975 23.3473 56.4214 23.1463C56.3432 22.9456 56.3097 22.7314 56.3231 22.5176C55.9593 23.0674 55.4508 23.5154 54.849 23.8162C54.2472 24.117 53.5734 24.26 52.8956 24.2308C51.8981 24.2791 50.9125 24.0046 50.0967 23.4512C49.7527 23.2041 49.4764 22.8804 49.2913 22.5081C49.1102 22.1293 49.0271 21.7141 49.0491 21.2979C49.0253 20.845 49.1162 20.3933 49.314 19.9816C49.5119 19.5699 49.8108 19.2103 50.1851 18.9339C50.9445 18.3806 52.0478 18.104 53.4947 18.104H56.1136V17.4847C56.1263 17.2354 56.0781 16.9867 55.9729 16.7585C55.8675 16.5297 55.7084 16.3274 55.508 16.1675C55.0197 15.8276 54.4242 15.6599 53.8221 15.6928C53.2696 15.6703 52.7227 15.806 52.2507 16.0826C52.0561 16.1994 51.8898 16.3548 51.7629 16.5385C51.6332 16.7206 51.5461 16.9276 51.5076 17.1452H49.3568C49.3914 16.6823 49.5322 16.2324 49.7693 15.828C50.0063 15.4233 50.3353 15.0752 50.7318 14.8095C51.6791 14.2219 52.7937 13.9329 53.9203 13.9827C55.3127 13.9827 56.3952 14.2971 57.1677 14.9258C57.5514 15.2637 57.8521 15.6793 58.048 16.1425C58.2439 16.6058 58.3301 17.105 58.3004 17.6041V21.5399C58.3004 22.0083 58.5263 22.2409 58.9879 22.2409L59.3873 22.2629ZM56.1136 19.6538H53.3703C52.8192 19.6243 52.2722 19.7606 51.8055 20.0436C51.6245 20.1718 51.4795 20.3412 51.3835 20.5365C51.2876 20.7318 51.2436 20.947 51.2555 21.1627C51.251 21.3619 51.2959 21.5592 51.3864 21.7385C51.4769 21.9177 51.6104 22.0738 51.776 22.1938C52.1863 22.4743 52.6842 22.6119 53.187 22.5836C53.5754 22.6088 53.9652 22.5598 54.3338 22.4395C54.7024 22.3192 55.0425 22.1299 55.3345 21.8826C55.5902 21.6377 55.7917 21.3458 55.927 21.0244C56.0617 20.703 56.1263 20.3585 56.1169 20.0121L56.1136 19.6538ZM60.245 15.9726H58.4412V14.1242H60.245V11.3389H62.458V14.1242H64.9558V15.9726H62.458V21.1721C62.4257 21.4683 62.5124 21.7651 62.7002 22.002C62.9334 22.1847 63.2322 22.2717 63.5317 22.2441H65.198V24.0957H63.0865C62.1044 24.0957 61.3777 23.8756 60.9292 23.4324C60.4807 22.9891 60.245 22.3195 60.245 21.3764V15.9726ZM73.8666 14.6177C74.6159 15.0326 75.2225 15.6489 75.6115 16.3907C76.0471 17.2371 76.2627 18.1723 76.24 19.1162C76.2595 20.0457 76.0438 20.9658 75.6115 21.7977C75.2174 22.541 74.6126 23.1622 73.8666 23.5895C73.0958 24.0159 72.2189 24.2332 71.3296 24.2183C70.6289 24.2382 69.9332 24.0981 69.2999 23.8096C68.7565 23.5561 68.2891 23.1743 67.9413 22.6999V28H65.7513V14.1242H67.6565L67.9217 15.6048C68.3087 15.093 68.82 14.6797 69.4112 14.4008C70.0006 14.1212 70.6529 13.9862 71.3099 14.0079C72.2045 13.9889 73.0882 14.1995 73.8699 14.6177H73.8666ZM73.1661 21.5053C73.7398 20.832 74.0348 19.9791 73.9943 19.1099C74.0336 18.2388 73.7337 17.3848 73.153 16.7145C72.8746 16.4255 72.5383 16.1935 72.1643 16.0323C71.5954 15.7971 70.9649 15.7355 70.3583 15.8558C69.7516 15.9762 69.1982 16.2726 68.7728 16.7051C68.2052 17.3698 67.9158 18.2137 67.961 19.0722C67.9145 19.9511 68.2031 20.8161 68.7728 21.5053C69.0465 21.799 69.381 22.0346 69.7549 22.1969C70.3246 22.4422 70.9606 22.5074 71.5714 22.3831C72.1821 22.2588 72.7359 21.9515 73.153 21.5053H73.1661ZM79.4351 23.577C78.6431 23.1679 77.9933 22.5449 77.5659 21.7851C77.1337 20.9555 76.9087 20.0407 76.9087 19.1131C76.9087 18.1855 77.1337 17.2706 77.5659 16.441C77.9976 15.6827 78.6462 15.0587 79.4351 14.6429C80.2923 14.2213 81.2416 14.0015 82.2046 14.0015C83.1677 14.0015 84.1169 14.2213 84.9741 14.6429C85.7628 15.0581 86.4105 15.6822 86.8401 16.441C87.2723 17.2706 87.4972 18.1855 87.4972 19.1131C87.4972 20.0407 87.2723 20.9555 86.8401 21.7851C86.4131 22.5442 85.7646 23.1669 84.9741 23.577C84.115 23.9924 83.1665 24.2088 82.2046 24.2088C81.2427 24.2088 80.2942 23.9924 79.4351 23.577ZM84.4274 21.4928C84.9709 20.8062 85.2652 19.9676 85.2652 19.1052C85.2652 18.2428 84.9709 17.4042 84.4274 16.7176C83.9898 16.289 83.4293 15.995 82.8173 15.873C82.2052 15.751 81.5692 15.8064 80.9901 16.0323C80.6073 16.1935 80.2663 16.434 79.9916 16.7365C79.4542 17.4255 79.1638 18.2632 79.1638 19.1241C79.1638 19.9849 79.4542 20.8226 79.9916 21.5116C80.2654 21.8151 80.6066 22.0557 80.9901 22.2158C81.7721 22.5091 82.6404 22.5091 83.4224 22.2158C83.8084 22.0567 84.1519 21.816 84.4274 21.5116V21.4928ZM93.9898 14.1242V16.0701H93.0077C92.6326 16.0406 92.2558 16.1027 91.9124 16.2505C91.569 16.3984 91.2701 16.6272 91.0435 16.9157C90.6146 17.5562 90.4019 18.3082 90.4346 19.069V24.0737H88.2445V14.1053H90.189L90.4346 15.6048C90.7192 15.1512 91.1162 14.7721 91.5902 14.5014C92.1809 14.213 92.8402 14.0785 93.502 14.1116L93.9898 14.1242ZM94.6969 11.3389H96.9099V14.1242H99.4273V15.9726H96.9099V21.1721C96.8776 21.4683 96.9643 21.7651 97.1521 22.002C97.2679 22.093 97.4012 22.1613 97.5444 22.2028C97.6877 22.2443 97.838 22.2583 97.9869 22.2441H99.6532V24.0957H97.5187C96.5367 24.0957 95.8132 23.8756 95.368 23.4324C94.9227 22.9891 94.7132 22.3101 94.7132 21.389L94.6969 11.3389Z" fill="#333333"/>
<path d="M103.074 24.2622V10.6285H105.421V22.2849H111.504V24.2685L103.074 24.2622ZM114.528 10.6536C114.776 10.8948 114.915 11.2201 114.915 11.559C114.915 11.8979 114.776 12.2231 114.528 12.4643C114.269 12.695 113.929 12.8231 113.576 12.8231C113.222 12.8231 112.882 12.695 112.623 12.4643C112.378 12.2219 112.24 11.8971 112.24 11.559C112.24 11.2208 112.378 10.896 112.623 10.6536C112.88 10.4195 113.221 10.2889 113.576 10.2889C113.93 10.2889 114.271 10.4195 114.528 10.6536ZM112.482 14.2719H114.672V24.2465H112.482V14.2719ZM124.137 15.2621C124.916 15.9914 125.304 17.1598 125.302 18.7672V24.2622H123.099V18.8835C123.155 18.1146 122.933 17.3508 122.47 16.7207C122.243 16.4687 121.959 16.2707 121.639 16.1423C121.318 16.0126 120.971 15.9577 120.624 15.982C120.24 15.9663 119.857 16.0362 119.505 16.1861C119.154 16.3361 118.843 16.5621 118.598 16.8465C118.07 17.5352 117.81 18.3791 117.861 19.2325V24.2622H115.668V14.2719H117.579L117.822 15.5765C118.216 15.1026 118.722 14.7257 119.298 14.4769C119.874 14.2282 120.504 14.1148 121.135 14.1461C121.686 14.1273 122.237 14.216 122.752 14.4071C123.268 14.5974 123.738 14.8849 124.137 15.2527V15.2621ZM126.274 10.6222H128.464V19.157L133.211 14.2719H135.748L131.875 18.2831L135.99 24.2559H133.411L130.33 19.8298L128.477 21.7159V24.2685H126.287L126.274 10.6222Z" fill="#333333"/>
</g>
<defs>
<clipPath id="clip0_113_43">
<rect width="136" height="28" fill="white"/>
</clipPath>
</defs>
</svg>
