<svg width="134" height="18" viewBox="0 0 134 18" fill="none" xmlns="http://www.w3.org/2000/svg">
<path fill-rule="evenodd" clip-rule="evenodd" d="M12.4836 0.913775C15.3667 2.374 17.354 5.45875 17.354 9.00001C17.354 12.5413 15.3674 15.6082 12.4836 17.0877V14.4401C13.7848 13.4349 14.7516 11.9569 15.0502 10.2781H12.4836V7.73979H15.0502C14.7516 6.07882 13.802 4.58143 12.4836 3.57771V0.913775ZM8.68522 18C7.31383 18 6.02981 17.6721 4.88687 17.0877V14.4216C5.64017 15.0076 6.51237 15.4073 7.43701 15.5903V10.2781H4.88758V7.73979H7.43772V2.40968C6.51307 2.59269 5.64087 2.99243 4.88758 3.57845V0.913032C6.06915 0.309274 7.36901 -0.00317089 8.68594 2.4261e-05C10.0401 2.4261e-05 11.3413 0.329389 12.4836 0.913775V3.57771C11.7244 2.9913 10.8467 2.5924 9.91696 2.40968V7.73979H12.4836V10.2781H9.91696V15.5903C10.8431 15.4059 11.7191 15.0133 12.4836 14.4401V17.0877C11.3013 17.6893 10.0019 18.0014 8.68522 18ZM4.88758 17.0885C1.98654 15.6275 0 12.542 0 9.00075C0 5.45949 1.98654 2.37474 4.88758 0.914518V3.57994C3.58709 4.56581 2.63751 6.04388 2.32098 7.74202H4.88758V10.2803L2.32098 10.2617C2.63751 11.942 3.58709 13.4372 4.88758 14.4238V17.0885Z" fill="#333333"/>
<path fill-rule="evenodd" clip-rule="evenodd" d="M99.9948 5.71572C100.61 5.71572 101.119 5.80717 101.683 6.13505C102.386 6.57297 102.807 7.08449 103.09 7.90531C103.423 8.74545 103.476 9.63988 103.423 10.5521C103.371 11.5016 102.879 12.0666 102.034 12.0666H99.2386V14.7499H102.053C103.618 14.622 104.989 14.3306 105.745 12.6324C106.184 11.6101 106.238 10.3685 106.166 9.27334C106.08 8.23319 105.709 7.01014 105.182 6.07929C104.689 5.18486 103.828 4.21758 102.914 3.74249C102.053 3.28598 100.98 3.04881 99.9955 3.04881H99.2386V5.71423H99.9948V5.71572ZM119.266 3.0503H107.327V5.71572H114.905L106.816 12.0674V14.7335H120.039V12.0674H111.159L119.266 5.71572V3.0503ZM127.371 14.6228C126.298 14.6228 125.172 14.5499 124.134 14.2391C122.799 13.8384 121.779 13.1083 121.129 11.8488C120.829 11.2458 120.743 10.7165 120.743 10.077V3.04955H123.52V10.077C123.52 10.3878 123.591 10.735 123.818 10.9715C124.54 11.683 125.472 11.793 126.421 11.8488C127.048 11.8852 127.676 11.8852 128.303 11.8488C129.252 11.7938 130.219 11.683 130.922 10.9715C131.15 10.735 131.222 10.3878 131.222 10.077V3.04955H134V10.077C134 10.735 133.911 11.2272 133.612 11.8488C132.978 13.1269 131.907 13.8191 130.606 14.2391C129.585 14.5871 128.426 14.6228 127.371 14.6228ZM99.2378 12.0674H95.0191V5.71572H99.2378V3.0503H92.2405V14.7335L99.2378 14.7507V12.0674ZM83.1149 12.9997V10.3521H85.3836L83.1328 6.29937L83.1149 6.3172V3.04955H84.1877L91.3082 14.7328H87.827L86.8603 12.999L83.1149 12.9997ZM83.1149 3.04955V6.3172L80.8476 10.3521H83.1149V12.9997H79.3703L78.4207 14.7335H74.921L82.06 3.0503L83.1149 3.04955ZM59.6423 14.7335V3.0503H62.4023L66.8867 9.96925L71.4764 3.0503H74.2542V14.7335H71.4764V8.454L66.8867 15.373L62.4023 8.454V14.7335H59.6423ZM54.7898 14.7335V3.0503H57.5677V14.7335H54.7898ZM38.5616 14.7335V3.0503H41.3395V8.47185H49.8851V3.0503H52.645V14.7335H49.8851V11.1194H41.3395V14.7335H38.5616ZM24.2841 10.4994C25.1807 10.9915 26.0773 11.5202 27.0448 11.886C28.3983 12.3782 29.9638 12.5611 31.3874 12.4525C32.1967 12.3975 33.4277 12.2332 34.0077 11.5202C34.2713 11.1744 34.0779 10.7172 33.6912 10.5893C33.2165 10.4457 32.726 10.3662 32.2317 10.3529C30.5789 10.2614 28.9963 10.4258 27.3263 10.1521C26.4998 9.98635 25.6555 9.80493 24.8642 9.51348C23.9504 9.1291 23.1061 8.50903 23.0008 7.39527C22.8598 6.06293 23.2293 4.98561 24.3192 4.18264C25.8668 3.01387 27.8884 2.77669 29.7346 2.75885C31.5636 2.72242 33.5501 3.34323 35.203 4.12762C35.9062 4.43765 36.4161 4.83989 37.0141 5.33208L35.309 7.32167C33.9906 6.44583 32.4781 5.71572 30.8775 5.49639C29.489 5.31349 28.3281 5.35066 26.9567 5.76999C26.6753 5.86144 26.376 6.02576 26.1654 6.24434C25.8496 6.62799 25.9019 7.02948 26.3416 7.24881C27.0448 7.61386 28.1348 7.76033 28.891 7.77817C30.1743 7.83319 31.4755 7.76033 32.7595 7.77817C33.1992 7.79602 33.6389 7.79601 34.0779 7.88746C34.9573 8.05177 36.0294 8.47185 36.6094 9.23839C37.1021 9.91348 37.1193 11.2466 36.8558 12.0131C36.6453 12.5246 36.2578 12.999 35.8539 13.3826C34.6587 14.4414 33.2343 14.8607 31.7047 15.08C29.9817 15.3165 28.5931 15.1164 26.9403 14.6414C25.3404 14.1663 23.9862 13.4547 22.5977 12.5417L24.2841 10.4994Z" fill="#333333"/>
</svg>
